<?xml version="1.0" standalone="no"?><!DOCTYPE svg PUBLIC "-//W3C//DTD SVG 1.1//EN" "http://www.w3.org/Graphics/SVG/1.1/DTD/svg11.dtd"><svg t="1772982790570" class="icon" viewBox="0 0 1024 1024" version="1.1" xmlns="http://www.w3.org/2000/svg" p-id="14549" xmlns:xlink="http://www.w3.org/1999/xlink" width="200" height="200"><path d="M978.86440347 559.63922524H893.11379867v381.11379871h-333.47457343v-158.63861888l132.91343742-132.91343741 33.8238493 5.71670699a100.04237226 100.04237226 0 1 0 0-200.0847445 100.04237226 100.04237226 0 0 0-100.04237224 100.04237224l4.76392286 33.82384931-71.45883734 72.41162255V400.04782115c31.44188842-17.15012096 52.40314699-50.02118612 52.40314702-88.13256565A100.04237226 100.04237226 0 0 0 512 211.87288324a100.04237226 100.04237226 0 0 0-100.04237226 100.04237226c0 38.11137955 20.96125857 70.9824447 52.40314702 88.13256565v261.0629531l-71.45883734-72.41162255 4.76392286-33.82384931a100.04237226 100.04237226 0 0 0-100.04237224-100.04237224 100.04237226 100.04237226 0 0 0-100.04237225 100.04237224A100.04237226 100.04237226 0 0 0 297.62348804 654.91767465l33.8238493-5.71670699L464.36077476 782.11440507V940.75302395H130.88620133v-381.11379871H47.5175574c-20.00847445 0-39.54055628 0-39.54055628-10.00423722 0.47639262-10.48062984 20.48486708-30.4891043 40.96973303-50.97397135L464.36077476 83.24697605c15.7209442-15.7209442 31.91828105-31.91828105 47.63922524-31.91828102 15.7209442 0 31.91828105 16.19733684 47.63922524 31.91828102l190.5568988 190.55689991V226.16465071h95.27845051v142.91767464l132.4370448 132.43704481c19.05569033 19.05569033 38.58777215 38.58777215 39.06416477 48.59200939 0 9.52784461-19.05569033 9.52784461-38.11138065 9.52784569M297.62348804 512a42.87530239 42.87530239 0 0 1 42.87530238 42.87530239 42.87530239 42.87530239 0 0 1-42.87530238 42.8753024 42.87530239 42.87530239 0 0 1-42.8753024-42.8753024 42.87530239 42.87530239 0 0 1 42.8753024-42.87530239m428.75302392 0c23.81961206 0 42.87530239 19.05569033 42.8753024 42.87530239s-19.05569033 42.87530239-42.8753024 42.8753024a42.87530239 42.87530239 0 0 1-42.87530238-42.8753024 42.87530239 42.87530239 0 0 1 42.87530238-42.87530239M512 269.03995309c23.81961206 0 42.87530239 19.05569033 42.87530239 42.87530241s-19.05569033 42.87530239-42.87530239 42.87530239-42.87530239-19.05569033-42.87530239-42.87530239 19.05569033-42.87530239 42.87530239-42.87530241z" p-id="14550"></path></svg>