<?xml version="1.0" standalone="no"?><!DOCTYPE svg PUBLIC "-//W3C//DTD SVG 1.1//EN" "http://www.w3.org/Graphics/SVG/1.1/DTD/svg11.dtd"><svg t="1772983205319" class="icon" viewBox="0 0 1024 1024" version="1.1" xmlns="http://www.w3.org/2000/svg" p-id="16653" xmlns:xlink="http://www.w3.org/1999/xlink" width="200" height="200"><path d="M909.294538 152.056138 135.010927 152.056138c-51.134611 0-92.736101 41.61684-92.736101 92.770893l0 464.527802c0 51.15303 41.60149 92.76987 92.736101 92.76987l340.823386 0 0 42.860157L320.821843 844.98486c-5.396917 0-11.638061 0.224104-17.415648 2.891863-8.505721 3.929496-13.382798 11.927657-13.382798 21.945825l0 1.714038c0 9.857509 4.740978 17.857716 13.009292 21.950941 5.79396 2.869351 12.243859 3.25616 17.789155 3.25616l402.661779 0 1.608637 0.005117c0.515746 0.00307 1.040702 0.00614 1.573845 0.00614 6.78759 0 14.835893-0.424672 21.206998-6.763031 2.923586-2.90926 6.408967-8.16189 6.408967-16.662495l0-1.713015c0-12.284791-8.065699-26.630521-30.798447-26.630521L568.470129 844.985884l0-42.860157 340.824409 0c51.134611 0 92.735078-41.61684 92.735078-92.76987L1002.029616 244.827031C1002.029616 193.672978 960.429149 152.056138 909.294538 152.056138zM971.33043 709.354833c0 34.225499-27.828812 62.070684-62.035892 62.070684L537.770943 771.425517l0 74.214259-31.237445 0 0-74.214259L135.010927 771.425517c-34.20708 0-62.036915-27.845185-62.036915-62.070684L72.974012 244.827031c0-34.226522 27.829835-62.071707 62.036915-62.071707l774.282588 0c34.20708 0 62.035892 27.845185 62.035892 62.071707L971.329407 709.354833z" fill="#3E3A39" p-id="16654"></path></svg>